<svg viewBox="0 0 600 360" xmlns="http://www.w3.org/2000/svg" class="h-full w-full block" preserveAspectRatio="xMidYMid slice" role="img">

    <defs>
      <!-- Gradients -->
      <linearGradient id="bp-purple" x1="0%" y1="0%" x2="100%" y2="100%">
        <stop offset="0%"  stop-color="hsl(258 88% 50%)"/>
        <stop offset="55%" stop-color="hsl(275 90% 62%)"/>
        <stop offset="100%" stop-color="hsl(290 95% 74%)"/>
      </linearGradient>
      <linearGradient id="bp-purple-2" x1="0%" y1="0%" x2="0%" y2="100%">
        <stop offset="0%"  stop-color="hsl(275 90% 65%)"/>
        <stop offset="100%" stop-color="hsl(258 80% 48%)"/>
      </linearGradient>
      <linearGradient id="bp-coral" x1="0%" y1="0%" x2="100%" y2="100%">
        <stop offset="0%"  stop-color="hsl(330 85% 65%)"/>
        <stop offset="100%" stop-color="hsl(290 90% 70%)"/>
      </linearGradient>
      <linearGradient id="bp-cyan" x1="0%" y1="0%" x2="100%" y2="100%">
        <stop offset="0%"  stop-color="hsl(195 85% 60%)"/>
        <stop offset="100%" stop-color="hsl(265 85% 65%)"/>
      </linearGradient>
      <linearGradient id="bp-card" x1="0%" y1="0%" x2="0%" y2="100%">
        <stop offset="0%"  stop-color="white"/>
        <stop offset="100%" stop-color="hsl(265 40% 97%)"/>
      </linearGradient>
      <linearGradient id="bp-bg" x1="0%" y1="0%" x2="100%" y2="100%">
        <stop offset="0%"  stop-color="hsl(265 50% 97%)"/>
        <stop offset="100%" stop-color="hsl(280 50% 94%)"/>
      </linearGradient>
      <radialGradient id="bp-glow" cx="50%" cy="50%" r="60%">
        <stop offset="0%"   stop-color="hsl(280 95% 70% / 0.55)"/>
        <stop offset="55%"  stop-color="hsl(265 85% 58% / 0.18)"/>
        <stop offset="100%" stop-color="hsl(265 85% 58% / 0)"/>
      </radialGradient>
      <radialGradient id="bp-glow-coral" cx="50%" cy="50%" r="60%">
        <stop offset="0%"   stop-color="hsl(325 90% 70% / 0.45)"/>
        <stop offset="100%" stop-color="hsl(325 90% 70% / 0)"/>
      </radialGradient>

      <!-- Subtle dot pattern -->
      <pattern id="bp-dots" width="22" height="22" patternUnits="userSpaceOnUse">
        <circle cx="11" cy="11" r="0.9" fill="hsl(265 60% 55% / 0.13)"/>
      </pattern>
      <!-- Cross-hatch grid (sparse) -->
      <pattern id="bp-grid" width="48" height="48" patternUnits="userSpaceOnUse">
        <path d="M 48 0 L 0 0 0 48" fill="none" stroke="hsl(265 60% 65% / 0.08)" stroke-width="0.8"/>
      </pattern>

      <!-- Shadows -->
      <filter id="bp-shadow-sm" x="-20%" y="-20%" width="140%" height="140%">
        <feDropShadow dx="0" dy="3" stdDeviation="4" flood-color="hsl(265 70% 25%)" flood-opacity="0.10"/>
      </filter>
      <filter id="bp-shadow" x="-30%" y="-30%" width="160%" height="160%">
        <feDropShadow dx="0" dy="8" stdDeviation="14" flood-color="hsl(265 70% 30%)" flood-opacity="0.18"/>
      </filter>
      <filter id="bp-soft" x="-20%" y="-20%" width="140%" height="140%">
        <feGaussianBlur stdDeviation="1.5"/>
      </filter>
    </defs>
      <rect width="600" height="360" fill="url(#bp-bg)"/>
      <rect width="600" height="360" fill="url(#bp-grid)"/>

      <ellipse cx="310" cy="190" rx="250" ry="170" fill="url(#bp-glow)"/>
      <!-- spoke connectors -->

        <path d="M 310 190 Q 235 130 160 110"
              fill="none" stroke="url(#bp-purple)" stroke-width="1.8" stroke-linecap="round" opacity="0.55"/>

        <path d="M 310 190 Q 245 200 180 250"
              fill="none" stroke="url(#bp-purple)" stroke-width="1.8" stroke-linecap="round" opacity="0.55"/>

        <path d="M 310 190 Q 365 122.5 420 95"
              fill="none" stroke="url(#bp-purple)" stroke-width="1.8" stroke-linecap="round" opacity="0.55"/>

        <path d="M 310 190 Q 390 175 470 200"
              fill="none" stroke="url(#bp-purple)" stroke-width="1.8" stroke-linecap="round" opacity="0.55"/>

        <path d="M 310 190 Q 345 220 380 290"
              fill="none" stroke="url(#bp-purple)" stroke-width="1.8" stroke-linecap="round" opacity="0.55"/>


      <!-- satellite nodes -->

        <g filter="url(#bp-shadow-sm)">
          <circle cx="160" cy="110" r="28" fill="white"/>
          <circle cx="160" cy="110" r="28" fill="url(#bp-cyan)" opacity="0.12"/>
          <circle cx="160" cy="110" r="18" fill="url(#bp-cyan)"/>
          <text x="160" y="114" text-anchor="middle" font-family="DM Sans, sans-serif" font-size="11" font-weight="700" fill="white">DB</text>
        </g>

        <g filter="url(#bp-shadow-sm)">
          <circle cx="180" cy="250" r="28" fill="white"/>
          <circle cx="180" cy="250" r="28" fill="url(#bp-purple-2)" opacity="0.12"/>
          <circle cx="180" cy="250" r="18" fill="url(#bp-purple-2)"/>
          <text x="180" y="254" text-anchor="middle" font-family="DM Sans, sans-serif" font-size="11" font-weight="700" fill="white">API</text>
        </g>

        <g filter="url(#bp-shadow-sm)">
          <circle cx="420" cy="95" r="28" fill="white"/>
          <circle cx="420" cy="95" r="28" fill="url(#bp-coral)" opacity="0.12"/>
          <circle cx="420" cy="95" r="18" fill="url(#bp-coral)"/>
          <text x="420" y="99" text-anchor="middle" font-family="DM Sans, sans-serif" font-size="11" font-weight="700" fill="white">LLM</text>
        </g>

        <g filter="url(#bp-shadow-sm)">
          <circle cx="470" cy="200" r="28" fill="white"/>
          <circle cx="470" cy="200" r="28" fill="url(#bp-purple)" opacity="0.12"/>
          <circle cx="470" cy="200" r="18" fill="url(#bp-purple)"/>
          <text x="470" y="204" text-anchor="middle" font-family="DM Sans, sans-serif" font-size="11" font-weight="700" fill="white">Tool</text>
        </g>

        <g filter="url(#bp-shadow-sm)">
          <circle cx="380" cy="290" r="28" fill="white"/>
          <circle cx="380" cy="290" r="28" fill="url(#bp-cyan)" opacity="0.12"/>
          <circle cx="380" cy="290" r="18" fill="url(#bp-cyan)"/>
          <text x="380" y="294" text-anchor="middle" font-family="DM Sans, sans-serif" font-size="11" font-weight="700" fill="white">User</text>
        </g>


      <!-- central agent core -->
      <g filter="url(#bp-shadow)">
        <circle cx="310" cy="190" r="62" fill="url(#bp-purple)"/>
        <circle cx="310" cy="190" r="62" fill="url(#bp-glow)" opacity="0.55"/>
        <circle cx="310" cy="190" r="42" fill="url(#bp-purple-2)" opacity="0.7"/>
        <!-- agent face: dots -->
        <circle cx="294" cy="184" r="5" fill="white"/>
        <circle cx="326" cy="184" r="5" fill="white"/>
        <path d="M 292 204 Q 310 218 328 204" fill="none" stroke="white" stroke-width="3" stroke-linecap="round"/>
      </g>

      <g transform="translate(36,36)" filter="url(#bp-shadow-sm)">
        <rect width="116" height="28" rx="14" fill="white"/>
        <circle cx="14" cy="14" r="4" fill="url(#bp-purple)"/>
        <text x="24" y="18" font-family="ui-monospace,SFMono-Regular,monospace" font-size="10" font-weight="700" letter-spacing="1.5" fill="hsl(265 35% 25%)">AGENTIC AI</text>
      </g>

    </svg>
